<?xml version="1.0" encoding="UTF-8" standalone="no"?>
<svg width="571px" height="139px" viewBox="0 0 571 139" version="1.1" xmlns="http://www.w3.org/2000/svg" xmlns:xlink="http://www.w3.org/1999/xlink" xmlns:sketch="http://www.bohemiancoding.com/sketch/ns">
    <!-- Generator: Sketch 3.5.1 (25234) - http://www.bohemiancoding.com/sketch -->
    <title>logo-color</title>
    <desc>Created with Sketch.</desc>
    <defs></defs>
    <g id="Page-1" stroke="none" stroke-width="1" fill="none" fill-rule="evenodd" sketch:type="MSPage">
        <g id="logo-positive" sketch:type="MSArtboardGroup" transform="translate(-215.000000, -331.000000)" fill="#33FF99">
            <g id="logo-color" sketch:type="MSLayerGroup" transform="translate(214.000000, 330.000000)">
                <g id="Layer_1" sketch:type="MSShapeGroup">
                    <g id="Group">
                        <path d="M54.52125,40.66825 C49.616,35.21 42.34125,31.98825 34.3595,31.98825 C14.1995,31.98825 1.0395,48.22825 1.0395,68.25 C1.0395,88.13175 14.20125,104.51 34.3595,104.51 C42.343,104.51 49.7595,101.43 54.52125,95.4135 L54.52125,107.03525 C54.52125,119.217 49.34125,126.9135 35.06125,126.9135 C24.56125,126.9135 20.64125,120.89525 17.70125,112.6335 L3.42125,112.6335 C8.18125,128.59525 17.14125,139.79525 35.063,139.79525 C56.203,139.79525 69.0795,126.07525 69.0795,107.0335 L69.0795,34.36475 L54.52475,34.36475 L54.52125,40.66825 L54.52125,40.66825 L54.52125,40.66825 Z M48.77775,85.04825 C45.13775,89.10825 40.23775,91.21 34.35775,91.21 C28.75775,91.21 23.99775,88.83175 20.35775,85.04825 C16.85775,80.8535 15.87775,74.68825 15.87775,68.2465 C15.87775,61.6665 16.85775,55.6465 20.35775,51.44475 C23.99775,47.5265 28.75775,45.1395 34.35775,45.1395 C40.23775,45.1395 45.13775,47.3795 48.77775,51.44475 C52.41775,55.6395 54.51775,61.6665 54.51775,68.2465 C54.52125,74.68825 52.41775,80.84825 48.77775,85.04825 L48.77775,85.04825 Z" id="Shape"></path>
                        <path d="M290.9095,40.94825 C285.45125,34.7865 278.59125,32.26825 269.63125,32.26825 C249.4695,32.26825 235.61125,47.80825 235.61125,70.21 C235.61125,92.74825 249.47125,108.29 269.63125,108.29 C278.31125,108.29 285.73125,105.07 290.9095,99.47175 L290.9095,106.0535 L305.466,106.0535 L305.466,1.3265 L290.9095,1.3265 L290.9095,40.94825 L290.9095,40.94825 L290.9095,40.94825 Z M269.6295,95.41175 C255.0695,95.41175 250.5895,82.95 250.5895,70.21 C250.5895,57.61 255.0695,45.01 269.6295,45.01 C284.46775,45.01 290.90775,55.51 290.90775,70.21 C290.9095,85.18825 284.47125,95.41175 269.6295,95.41175 L269.6295,95.41175 Z" id="Shape"></path>
                        <path d="M333.67775,91.63175 L333.67775,1.4665 L319.53775,1.4665 L319.53775,91.63 C319.53775,99.61175 323.17775,106.04475 337.03775,106.04475 L337.03775,104.09 L337.03775,92.89 C335.21775,92.8865 333.67775,92.3265 333.67775,91.63175 L333.67775,91.63175 Z" id="Shape"></path>
                        <rect id="Rectangle-path" x="350.47075" y="11.26825" width="14.42" height="15.82"></rect>
                        <rect id="Rectangle-path" x="350.47075" y="34.3665" width="14.42" height="71.68"></rect>
                        <path d="M412.3525,32.26825 C404.3725,32.26825 398.2125,35.90825 394.156,41.08825 L394.156,34.363 L379.7395,34.363 L379.7395,106.04125 L394.156,106.04125 L394.156,73.423 C394.156,56.063 399.33775,45.003 412.3525,45.003 C425.3725,45.003 427.61425,55.08825 427.61425,67.54475 L427.61425,106.04475 L442.03425,106.04475 L442.03425,67.54475 C442.03425,45.1465 435.7325,32.26825 412.3525,32.26825 L412.3525,32.26825 Z" id="Shape"></path>
                        <path d="M503.84075,38.2865 C504.8225,37.44825 507.8955,34.3665 502.439,34.3665 L488.439,34.3665 L467.7155,54.8135 L467.7155,1.1865 L453.30075,1.1865 L453.30075,106.04825 L467.7155,106.04825 L467.7155,73.70825 C469.3955,71.88825 469.81375,71.32825 471.3555,69.64825 L496.55375,106.05175 L513.3555,106.05175 L481.7155,60.13175 L503.84075,38.2865 L503.84075,38.2865 Z" id="Shape"></path>
                        <path d="M560.82425,69.09 C553.82425,65.03 546.82425,63.35 539.96425,61.25 C533.3825,59.29 528.9095,58.03 528.9095,54.39 C528.9095,48.08825 535.2095,44.30825 543.04425,44.30825 C549.7695,44.30825 555.0895,49.07 557.04425,54.67 L571.32425,54.67 C569.22425,42.07 559.42425,31.98825 543.04425,31.98825 C535.9095,31.98825 529.32425,34.08825 524.14425,37.44825 C518.2695,41.503 514.7695,47.53 514.7695,54.39 C514.7695,60.69 516.5895,66.15 525.546,71.19 C529.88425,73.57 538.8495,76.65 543.88425,77.917 C551.7225,80.29 557.046,81.417 557.046,86.597 C557.046,93.87175 549.6295,95.2735 543.46425,95.2735 C536.32425,95.2735 530.86425,90.9335 528.7695,85.47 L514.4895,85.47 C515.8895,92.05175 518.97125,97.65 523.1695,101.01 C528.3495,105.21 535.9095,108.15 543.47125,108.15 C551.17125,108.15 557.33125,106.19175 562.0965,103.38825 C568.113,99.61175 571.33125,93.7265 571.33125,86.59 C571.32425,79.17 569.359,74.27 560.82425,69.09 L560.82425,69.09 Z" id="Shape"></path>
                        <path d="M191.50425,32.26825 C175.67725,32.26825 164.409,41.8425 159.74,55.468 L175.077,55.468 C177.99775,49.3745 183.2075,45.00475 191.5095,45.00475 C205.9295,45.00475 210.9695,57.88475 210.9695,70.34475 C210.9695,82.80475 205.9295,95.54125 191.5095,95.54125 C183.23375,95.54125 178.02925,91.25375 175.1015,85.225 L159.74525,85.225 C164.4125,98.854 175.6825,108.423 191.5095,108.423 C212.65125,108.423 225.5295,91.3395 225.5295,70.343 C225.5295,49.3465 212.64775,32.26825 191.50425,32.26825 L191.50425,32.26825 Z" id="Shape"></path>
                        <path d="M112.686,95.5465 C98.4095,95.5465 93.226,82.81 93.226,70.35 C93.226,57.89 98.4095,45.01 112.686,45.01 C121.07025,45.01 126.27125,49.37625 129.16225,55.47325 L144.3435,55.47325 C139.713,41.84775 128.5165,32.2735 112.68775,32.2735 C91.54775,32.2735 78.526,49.35525 78.526,70.35525 C78.526,91.35525 91.5425,108.43525 112.68775,108.43525 C128.5165,108.43525 139.7095,98.861 144.3435,85.23725 L129.1395,85.23725 C126.23975,91.259 121.04925,95.5465 112.686,95.5465 L112.686,95.5465 Z" id="Shape"></path>
                        <path d="M131.2115,63.28875 C131.62625,65.6635 131.831,68.11525 131.831,70.55825 C131.831,72.9505 131.6455,75.35675 131.2395,77.68425 L172.59375,77.68425 C172.11775,75.35675 171.89025,72.9505 171.89025,70.55825 C171.89025,68.11525 172.13525,65.6635 172.62875,63.28875 L131.2115,63.28875 L131.2115,63.28875 Z" id="Shape"></path>
                    </g>
                </g>
            </g>
        </g>
    </g>
</svg>