<?xml version="1.0" encoding="UTF-8" standalone="no"?>
<svg width="260px" height="136px" viewBox="0 0 260 136" version="1.1" xmlns="http://www.w3.org/2000/svg" xmlns:xlink="http://www.w3.org/1999/xlink" xmlns:sketch="http://www.bohemiancoding.com/sketch/ns">
    <!-- Generator: Sketch 3.5.1 (25234) - http://www.bohemiancoding.com/sketch -->
    <title>Shape</title>
    <desc>Created with Sketch.</desc>
    <defs></defs>
    <g id="Page-1" stroke="none" stroke-width="1" fill="none" fill-rule="evenodd" sketch:type="MSPage">
        <g id="iso-negative-dark" sketch:type="MSArtboardGroup" transform="translate(-370.000000, -332.000000)" fill="#FFFFFF">
            <path d="M569.457641,332 C541.328349,332 521.298203,349.016293 513,373.232864 L540.258416,373.232864 C545.449458,362.4029 554.708735,354.636553 569.463861,354.636553 C595.092495,354.636553 604.050075,377.528148 604.050075,399.673278 C604.050075,421.818408 595.092495,444.458071 569.463861,444.458071 C554.755389,444.458071 545.502333,436.834797 540.301959,426.123023 L513.006221,426.123023 C521.301313,450.345814 541.334569,467.352777 569.463861,467.352777 C607.039046,467.352777 629.927531,436.99031 629.927531,399.673278 C629.927531,362.356246 607.035936,332 569.457641,332 Z M430.712491,444.458071 C405.3389,444.458071 396.126277,421.818408 396.126277,399.673278 C396.126277,377.528148 405.33579,354.636553 430.712491,354.636553 C445.6138,354.636553 454.854415,362.396679 459.995693,373.232864 L486.974185,373.232864 C478.744407,349.016293 458.848003,332 430.715602,332 C393.143527,332 370,362.359356 370,399.682609 C370,437.005862 393.134196,467.362107 430.715602,467.362107 C458.848003,467.362107 478.741297,450.345814 486.974185,426.132354 L459.95215,426.132354 C454.801541,436.834797 445.576477,444.458071 430.712491,444.458071 Z M463,387 C463.737134,391.220638 464.101036,395.578128 464.101036,399.920066 C464.101036,404.171807 463.771347,408.448429 463.049764,412.58509 L536.54858,412.58509 C535.702586,408.448429 535.298251,404.171807 535.298251,399.920066 C535.298251,395.578128 535.730579,391.220638 536.610785,387 L463,387 Z" id="Shape" sketch:type="MSShapeGroup"></path>
        </g>
    </g>
</svg>