<?xml version="1.0" encoding="utf-8"?>
<!-- Generator: Adobe Illustrator 16.0.0, SVG Export Plug-In . SVG Version: 6.00 Build 0)  -->
<!DOCTYPE svg PUBLIC "-//W3C//DTD SVG 1.1//EN" "http://www.w3.org/Graphics/SVG/1.1/DTD/svg11.dtd">
<svg version="1.1" id="Layer_1" xmlns="http://www.w3.org/2000/svg" xmlns:xlink="http://www.w3.org/1999/xlink" x="0px" y="0px"
	 width="401.066px" height="130.559px" viewBox="0 0 401.066 130.559" enable-background="new 0 0 401.066 130.559"
	 xml:space="preserve">
<g>
	<path fill="#333333" d="M68.155,48.239c-2.803-3.119-6.96-4.96-11.521-4.96c-11.52,0-19.04,9.28-19.04,20.721
		c0,11.361,7.521,20.72,19.04,20.72c4.562,0,8.8-1.76,11.521-5.198v6.641c0,6.961-2.96,11.359-11.12,11.359
		c-6,0-8.24-3.439-9.92-8.16h-8.16c2.72,9.121,7.84,15.521,18.081,15.521c12.08,0,19.438-7.84,19.438-18.721V44.637h-8.317
		L68.155,48.239L68.155,48.239z M64.873,73.599c-2.08,2.32-4.88,3.521-8.24,3.521c-3.2,0-5.92-1.359-8-3.521
		c-2-2.397-2.56-5.92-2.56-9.601c0-3.76,0.56-7.2,2.56-9.601c2.08-2.239,4.8-3.603,8-3.603c3.36,0,6.16,1.28,8.24,3.603
		c2.08,2.397,3.28,5.841,3.28,9.601C68.155,67.679,66.953,71.199,64.873,73.599z"/>
	<path fill="#333333" d="M203.234,48.399c-3.119-3.521-7.039-4.96-12.159-4.96c-11.521,0-19.44,8.88-19.44,21.681
		c0,12.879,7.92,21.76,19.44,21.76c4.96,0,9.2-1.84,12.159-5.039v3.761h8.318V25.758h-8.318V48.399L203.234,48.399z M191.074,79.521
		c-8.32,0-10.88-7.121-10.88-14.401c0-7.2,2.56-14.4,10.88-14.4c8.479,0,12.159,6,12.159,14.4
		C203.234,73.679,199.555,79.521,191.074,79.521z"/>
	<path fill="#333333" d="M227.673,77.361V25.838h-8.08v51.522c0,4.561,2.08,8.237,10,8.237V84.48v-6.4
		C228.553,78.078,227.673,77.758,227.673,77.361z"/>
	<rect x="237.269" y="31.439" fill="#333333" width="8.24" height="9.04"/>
	<rect x="237.269" y="44.638" fill="#333333" width="8.24" height="40.96"/>
	<path fill="#333333" d="M272.63,43.439c-4.56,0-8.08,2.08-10.398,5.04v-3.843h-8.238v40.959h8.238V66.956
		c0-9.92,2.961-16.24,10.398-16.24c7.44,0,8.721,5.763,8.721,12.881v22h8.24v-22C289.591,50.798,285.99,43.439,272.63,43.439z"/>
	<path fill="#333333" d="M324.909,46.878c0.561-0.479,2.317-2.24-0.801-2.24h-8l-11.842,11.684V25.678h-8.237v59.921h8.237V67.119
		c0.96-1.04,1.199-1.36,2.08-2.32l14.399,20.802h9.601l-18.08-26.24L324.909,46.878z"/>
	<path fill="#333333" d="M357.471,64.48c-4-2.32-8-3.28-11.92-4.48c-3.761-1.12-6.317-1.84-6.317-3.92
		c0-3.601,3.6-5.761,8.077-5.761c3.843,0,6.883,2.721,8,5.921h8.16c-1.2-7.2-6.8-12.961-16.16-12.961c-4.077,0-7.84,1.2-10.8,3.12
		c-3.357,2.317-5.357,5.761-5.357,9.681c0,3.6,1.04,6.72,6.158,9.6c2.479,1.36,7.602,3.12,10.479,3.844
		c4.479,1.356,7.521,2,7.521,4.96c0,4.157-4.238,4.958-7.761,4.958c-4.08,0-7.2-2.48-8.397-5.602h-8.16
		c0.8,3.761,2.561,6.96,4.96,8.88c2.96,2.4,7.28,4.08,11.601,4.08c4.4,0,7.92-1.119,10.643-2.721
		c3.438-2.158,5.277-5.521,5.277-9.599C363.471,70.24,362.348,67.44,357.471,64.48z"/>
	<path fill="#333333" d="M146.431,43.439c-9.044,0-15.483,5.471-18.151,13.257h8.764c1.669-3.482,4.646-5.979,9.39-5.979
		c8.24,0,11.12,7.36,11.12,14.48s-2.88,14.398-11.12,14.398c-4.729,0-7.703-2.45-9.376-5.895h-8.775
		c2.667,7.788,9.107,13.256,18.151,13.256c12.081,0,19.44-9.762,19.44-21.76S158.513,43.439,146.431,43.439z"/>
	<path fill="#333333" d="M101.392,79.598c-8.158,0-11.12-7.278-11.12-14.398s2.962-14.48,11.12-14.48
		c4.791,0,7.763,2.495,9.415,5.979h8.675c-2.646-7.786-9.044-13.257-18.089-13.257c-12.08,0-19.521,9.761-19.521,21.761
		s7.438,21.76,19.521,21.76c9.045,0,15.441-5.471,18.089-13.256h-8.688C109.137,77.148,106.171,79.598,101.392,79.598z"/>
	<path fill="#333333" d="M111.978,61.165c0.237,1.357,0.354,2.758,0.354,4.154c0,1.367-0.106,2.742-0.338,4.072h23.631
		c-0.272-1.33-0.402-2.705-0.402-4.072c0-1.396,0.14-2.797,0.422-4.154H111.978z"/>
</g>
</svg>
